<svg xmlns="http://www.w3.org/2000/svg" width="22.772" height="26.734" viewBox="0 0 22.772 26.734">
  <g id="Group_349" data-name="Group 349" transform="translate(-1167.14 -8688.974)">
    <path id="Path_3442" data-name="Path 3442" d="M1285.786,8672.643a22.179,22.179,0,0,0-12.253.807c-.008.038-7.178,2.753-8.394,2.406" transform="translate(-96.49 39.33)" fill="none" stroke="#fff" stroke-linecap="round" stroke-linejoin="round" stroke-width="1"/>
    <path id="Path_3443" data-name="Path 3443" d="M1261.81,8560.383s9.606-3.971,11.639-13.263c-.043,0-3.2,0-3.2,0a9.3,9.3,0,0,0,3.853-2.446c-.018.012-.24-2.021,1.679-5.611-.011-.069-7.865-1.071-14.283,5.866-.092.082-5.481,6.607-2.424,13.951,0,.039,3.235-12.943,12.112-16.916.073.025-10.043,5.974-12.031,23.18C1259.251,8565.1,1261.81,8560.383,1261.81,8560.383Z" transform="translate(-91 150)" fill="#fff"/>
  </g>
</svg>
